<svg width="100" height="87" viewBox="0 0 100 87" fill="none" xmlns="http://www.w3.org/2000/svg">
<ellipse cx="49.9997" cy="61.6249" rx="4.16667" ry="3.625" fill="#2B8CDB"/>
<path d="M9.56611 63.9175L7.47464 62.5479L9.56611 63.9175ZM90.4339 63.9175L88.3424 65.2871L90.4339 63.9175ZM58.4667 15.1015L60.5582 13.7319L58.4667 15.1015ZM41.5333 15.1015L43.6247 16.4711V16.4711L41.5333 15.1015ZM52.4997 32.6249C52.4997 31.2442 51.3804 30.1249 49.9997 30.1249C48.619 30.1249 47.4997 31.2442 47.4997 32.6249H52.4997ZM47.4997 50.7499C47.4997 52.1306 48.619 53.2499 49.9997 53.2499C51.3804 53.2499 52.4997 52.1306 52.4997 50.7499H47.4997ZM56.3752 16.471L88.3424 65.2871L92.5253 62.5479L60.5582 13.7319L56.3752 16.471ZM81.9671 73.625H18.0328V78.625H81.9671V73.625ZM11.6576 65.2871L43.6247 16.4711L39.4418 13.7319L7.47464 62.5479L11.6576 65.2871ZM18.0328 73.625C15.1031 73.625 12.8827 72.2987 11.7394 70.6503C10.6281 69.0481 10.4687 67.1026 11.6576 65.2871L7.47464 62.5479C5.077 66.2093 5.45836 70.3675 7.63084 73.4999C9.77128 76.586 13.5775 78.625 18.0328 78.625V73.625ZM88.3424 65.2871C89.5313 67.1026 89.3718 69.0481 88.2606 70.6503C87.1173 72.2987 84.8969 73.625 81.9671 73.625V78.625C86.4225 78.625 90.2287 76.586 92.3691 73.4998C94.5416 70.3675 94.923 66.2093 92.5253 62.5479L88.3424 65.2871ZM60.5582 13.7319C58.1536 10.06 53.959 8.375 50 8.375C46.041 8.375 41.8463 10.06 39.4418 13.7319L43.6247 16.4711C44.9104 14.5077 47.3374 13.375 50 13.375C52.6626 13.375 55.0895 14.5077 56.3752 16.471L60.5582 13.7319ZM47.4997 32.6249V50.7499H52.4997V32.6249H47.4997Z" fill="#337AB7"/>
</svg>
